# This file uses centimeters as units for non-parametric coordinates.

v 2.172608 2.172218 10.483082
v 2.956329 2.085138 10.483082
v 3.584115 1.588984 10.483082
v 3.735999 0.843066 10.483082
v 3.628550 0.312485 10.483082
v 3.285579 -0.293363 10.483082
v 2.747235 -0.823268 10.483081
v 2.120883 -1.127036 10.483081
v 1.417408 -1.216605 10.483081
v 0.044625 0.429456 10.792004
v -2.172608 2.172218 10.483082
v 0.000000 2.217570 10.483082
v -2.956329 2.085138 10.483082
v -3.584115 1.588984 10.483082
v -3.707479 0.621315 10.483082
v -3.464314 -0.036848 10.483082
v -3.034127 -0.585317 10.483081
v -2.443467 -0.997091 10.483081
v -1.417408 -1.216605 10.483081
v 0.000000 -1.246981 10.483081
v 2.172608 2.172218 -10.561681
v 2.171609 2.157053 -10.576864
v 0.000000 2.217570 -10.561681
v -0.000000 2.202384 -10.576864
v 2.956329 2.085138 -10.561681
v 2.950328 2.070528 -10.576864
v 3.570345 1.580514 -10.576864
v 3.584115 1.588984 -10.561681
v 3.735999 0.843066 -10.561681
v 3.720506 0.843058 -10.576864
v 3.285579 -0.293363 -10.561681
v 3.273413 -0.284034 -10.576864
v 2.738363 -0.810696 -10.576864
v 2.747235 -0.823268 -10.561681
v 3.628550 0.312485 -10.561681
v 3.614148 0.317864 -10.576864
v 2.120883 -1.127036 -10.561681
v 2.116497 -1.112289 -10.576864
v 1.417408 -1.216605 -10.561681
v 1.416283 -1.201442 -10.576864
v -0.000000 -1.231794 -10.576864
v 0.000000 -1.246981 -10.561681
v -2.956329 2.085138 -10.561681
v -2.950328 2.070528 -10.576864
v -3.584115 1.588984 -10.561681
v -3.569838 1.580915 -10.576864
v -2.172608 2.172218 -10.561681
v -2.171609 2.157053 -10.576864
v -3.707479 0.621315 -10.561681
v -3.691947 0.623086 -10.576864
v -3.464314 -0.036848 -10.561681
v -3.450897 -0.029352 -10.576864
v -3.034127 -0.585317 -10.561681
v -3.023582 -0.574160 -10.576864
v -2.443467 -0.997091 -10.561681
v -2.437296 -0.982885 -10.576864
v -1.417408 -1.216605 -10.561681
v -1.415641 -1.201456 -10.576864
v 3.482336 0.782625 10.761889
v 3.412352 0.776072 10.792003
v 3.338783 1.401012 10.764159
v 3.278812 1.358216 10.792003
v 2.752648 1.810886 10.765994
v 2.720058 1.747954 10.792003
v 2.023222 1.883615 10.765429
v 2.006819 1.815989 10.792003
v 3.382867 0.341598 10.761114
v 3.316527 0.361309 10.792003
v 1.320197 -0.926183 10.764709
v 1.308150 -0.857780 10.792003
v 0.000000 -0.951524 10.764567
v -0.000000 -0.882950 10.792003
v 1.975271 -0.851607 10.765007
v 1.950916 -0.785647 10.792003
v 2.559254 -0.600482 10.764059
v 2.518942 -0.543699 10.792003
v 3.062291 -0.161696 10.762148
v 3.007191 -0.120516 10.792003
v -0.000000 1.853539 10.792003
v 0.000000 1.922113 10.764567
v -3.229397 0.051249 10.761534
v -3.169145 0.082705 10.792003
v -3.456360 0.598391 10.761215
v -3.387299 0.601120 10.792003
v -2.752648 1.810886 10.765994
v -2.719250 1.745753 10.792003
v -2.023399 1.883957 10.765095
v -2.006789 1.815480 10.792003
v -3.338830 1.401048 10.764104
v -3.277594 1.359580 10.792003
v -1.320140 -0.926012 10.764875
v -1.306702 -0.858375 10.792003
v -2.276013 -0.744321 10.764494
v -2.245202 -0.682134 10.792003
v -2.827187 -0.403633 10.763149
v -2.779991 -0.353942 10.792003
vt 0.721507 0.949099
vt 0.625647 0.949100
vt 0.721567 0.949099
vt 0.755821 0.949099
vt 0.625619 0.949100
vt 0.529758 0.949100
vt 0.756201 0.949099
vt 0.790731 0.949099
vt 0.791197 0.949099
vt 0.821607 0.948423
vt 0.821483 0.949099
vt 0.015127 0.949100
vt 0.036468 0.949100
vt 0.064681 0.949100
vt 0.036662 0.949100
vt 0.064858 0.949100
vt 0.096928 0.949100
vt 0.097145 0.949100
vt 0.127476 0.949100
vt 0.127696 0.949100
vt 0.159152 0.949100
vt 0.159224 0.949100
vt 0.222317 0.949100
vt 0.222345 0.949100
vt 0.285411 0.949100
vt 0.495063 0.949100
vt 0.460562 0.949100
vt 0.495443 0.949100
vt 0.529698 0.949100
vt 0.460040 0.949100
vt 0.420988 0.949100
vt 0.420689 0.949100
vt 0.393057 0.949100
vt 0.392863 0.949100
vt 0.363722 0.949100
vt 0.363527 0.949100
vt 0.332511 0.949100
vt 0.332241 0.949100
vt 0.285539 0.949100
vt 0.721533 0.011123
vt 0.625633 0.948424
vt 0.721537 0.948423
vt 0.756009 0.011123
vt 0.790973 0.011122
vt 0.756011 0.948423
vt 0.790974 0.948423
vt 0.821607 0.011122
vt 0.097009 0.011129
vt 0.064767 0.948424
vt 0.015004 0.948424
vt 0.014975 0.011130
vt 0.036536 0.011130
vt 0.036564 0.948424
vt 0.064740 0.011130
vt 0.159164 0.011129
vt 0.127585 0.948424
vt 0.097035 0.948424
vt 0.127561 0.011129
vt 0.159188 0.948424
vt 0.222310 0.011128
vt 0.495242 0.011126
vt 0.460291 0.948424
vt 0.529728 0.948424
vt 0.625625 0.011124
vt 0.529718 0.011125
vt 0.495253 0.948424
vt 0.460277 0.011126
vt 0.420837 0.948429
vt 0.392963 0.948352
vt 0.420823 0.011127
vt 0.363626 0.948424
vt 0.392948 0.011127
vt 0.285475 0.948424
vt 0.332360 0.011127
vt 0.363609 0.011127
vt 0.332378 0.948424
vt 0.285455 0.011128
vt 0.222331 0.948424
vt 0.980358 0.198507
vt 0.978055 0.283497
vt 0.845938 0.197672
vt 0.847469 0.142268
vt 0.846781 0.253116
vt 0.979112 0.113496
vt 0.974479 0.313956
vt 0.861755 0.304960
vt 0.850100 0.280548
vt 0.856273 0.102333
vt 0.955148 0.338106
vt 0.926247 0.343799
vt 0.882238 0.326029
vt 0.872415 0.079491
vt 0.893843 0.062890
vt 0.975914 0.082995
vt 0.905714 0.339512
vt 0.919439 0.053613
vt 0.956900 0.058626
vt 0.903333 0.814528
vt 0.903574 0.812513
vt 0.919410 0.808854
vt 0.919940 0.810838
vt 0.880123 0.809043
vt 0.881348 0.807414
vt 0.864693 0.787070
vt 0.866468 0.786081
vt 0.861775 0.759453
vt 0.863871 0.758850
vt 0.860283 0.682229
vt 0.862437 0.682229
vt 0.937806 0.797044
vt 0.939036 0.798714
vt 0.968070 0.732604
vt 0.965955 0.732175
vt 0.966916 0.682229
vt 0.969065 0.682230
vt 0.965141 0.757477
vt 0.963201 0.756715
vt 0.965978 0.632340
vt 0.968057 0.631878
vt 0.955642 0.779603
vt 0.953963 0.778403
vt 0.861768 0.604999
vt 0.863890 0.605610
vt 0.930973 0.559411
vt 0.930047 0.561231
vt 0.910254 0.552902
vt 0.910293 0.550874
vt 0.948202 0.574671
vt 0.946719 0.576089
vt 0.881296 0.557091
vt 0.880083 0.555418
vt 0.864720 0.577395
vt 0.866552 0.578408
vt 0.959249 0.596508
vt 0.961082 0.595548
vt 0.900885 0.825109
vt 0.872833 0.818337
vt 0.854465 0.794700
vt 0.979727 0.736350
vt 0.975892 0.763071
vt 0.850138 0.765183
vt 0.848366 0.682229
vt 0.964630 0.786941
vt 0.944861 0.807990
vt 0.921547 0.821416
vt 0.980973 0.682231
vt 0.916808 0.683933
vt 0.872831 0.545969
vt 0.909458 0.540173
vt 0.854478 0.569743
vt 0.971158 0.589099
vt 0.979660 0.628136
vt 0.850147 0.599272
vt 0.955815 0.566355
vt 0.935028 0.549434
vn 0.044751 0.998998 -0.000706
vn 0.002266 0.050639 -0.998714
vn 0.000000 0.247305 -0.968938
vn 0.000000 1.000000 -0.000714
vn 0.381883 0.924210 -0.000651
vn 0.001638 0.003968 -0.999991
vn -0.002266 0.050639 -0.998714
vn -0.044751 0.998998 -0.000706
vn 0.846962 0.531653 -0.000640
vn 0.003657 0.002295 -0.999991
vn 0.999395 0.034789 -0.000665
vn 0.003080 0.000107 -0.999995
vn 0.929643 -0.368461 -0.000675
vn 0.002675 -0.001061 -0.999996
vn 0.790042 -0.613052 -0.000680
vn 0.003384 -0.002626 -0.999991
vn 0.582046 -0.813156 -0.000675
vn 0.003674 -0.005132 -0.999980
vn 0.283634 -0.958933 -0.000675
vn 0.001804 -0.006103 -0.999980
vn 0.056464 -0.998404 -0.000704
vn 0.001684 -0.029809 -0.999554
vn 0.000000 -1.000000 -0.000714
vn 0.000001 -0.320877 -0.947121
vn -0.101738 -0.994811 -0.000692
vn -0.003652 -0.035739 -0.999354
vn -0.381883 0.924211 -0.000651
vn -0.001579 0.003826 -0.999991
vn -0.003320 0.001702 -0.999993
vn -0.889701 0.456543 -0.000635
vn -0.002736 -0.000202 -0.999996
vn -0.997296 -0.073487 -0.000658
vn -0.002371 -0.001323 -0.999996
vn -0.873234 -0.487301 -0.000676
vn -0.003675 -0.003907 -0.999986
vn -0.685155 -0.728397 -0.000678
vn -0.001993 -0.005105 -0.999985
vn -0.363729 -0.931505 -0.000667
vn 0.044751 0.998998 0.000000
vn 0.000000 1.000000 0.000000
vn 0.381883 0.924211 0.000000
vn 0.846962 0.531653 0.000000
vn 0.999395 0.034789 0.000000
vn 0.790042 -0.613052 0.000000
vn 0.582046 -0.813156 0.000000
vn 0.929643 -0.368461 0.000000
vn 0.283634 -0.958933 0.000000
vn 0.056464 -0.998405 0.000000
vn 0.000000 -1.000000 0.000000
vn -0.381883 0.924211 0.000000
vn -0.889701 0.456543 0.000000
vn -0.044751 0.998998 0.000000
vn -0.997296 -0.073487 0.000000
vn -0.873234 -0.487302 0.000000
vn -0.685155 -0.728397 0.000000
vn -0.101738 -0.994811 0.000000
vn -0.363729 -0.931505 0.000000
vn 0.692712 0.014092 0.721077
vn 0.022173 0.000440 0.999754
vn 0.022624 -0.010387 0.999690
vn 0.653547 -0.286407 0.700604
vn 0.533102 0.349197 0.770625
vn 0.021790 0.014748 0.999654
vn 0.211645 0.595612 0.774888
vn 0.009362 0.026837 0.999596
vn 0.024204 0.655809 0.754539
vn 0.001702 0.047887 0.998851
vn -0.000006 0.651510 0.758641
vn -0.000007 0.035557 0.999368
vn 0.019482 -0.017073 0.999664
vn 0.531632 -0.445620 0.720271
vn 0.031892 -0.652433 0.757175
vn 0.002142 -0.045311 0.998971
vn 0.000007 -0.038654 0.999253
vn 0.000008 -0.650999 0.759079
vn 0.165779 -0.627883 0.760447
vn 0.008492 -0.033376 0.999407
vn -0.003505 -0.040759 0.999163
vn -0.057815 -0.651236 0.756669
vn 0.366267 -0.552888 0.748441
vn 0.015170 -0.023908 0.999599
vn -0.024210 0.655297 0.754983
vn -0.001736 0.048285 0.998832
vn -0.603587 -0.366455 0.708091
vn -0.020369 -0.012945 0.999709
vn -0.022998 -0.002365 0.999733
vn -0.696685 -0.066981 0.714244
vn -0.445542 -0.510860 0.735197
vn -0.017078 -0.020482 0.999644
vn -0.023013 0.012465 0.999658
vn -0.569521 0.299850 0.765333
vn -0.211353 0.594848 0.775555
vn -0.009207 0.026467 0.999607
vn -0.011753 -0.034632 0.999331
vn -0.217753 -0.619816 0.753931
vn -0.000000 0.000000 1.000000
f 21/42/1 22/1/2 24/2/3 23/41/4
f 22/3/2 21/42/1 25/45/5 26/4/6
f 23/41/4 24/5/3 48/6/7 47/63/8
f 26/7/6 25/45/5 28/46/9 27/8/10
f 27/9/10 28/46/9 29/10/11 30/11/12
f 30/12/12 29/50/11 35/53/13 36/13/14
f 31/49/15 32/14/16 36/15/14 35/53/13
f 32/16/16 31/49/15 34/57/17 33/17/18
f 33/18/18 34/57/17 37/56/19 38/19/20
f 38/20/20 37/56/19 39/59/21 40/21/22
f 40/22/22 39/59/21 42/78/23 41/23/24
f 41/24/24 42/78/23 57/73/25 58/25/26
f 43/66/27 44/26/28 46/27/29 45/62/30
f 44/28/28 43/66/27 47/63/8 48/29/7
f 45/62/30 46/30/29 50/31/31 49/68/32
f 49/68/32 50/32/31 52/33/33 51/69/34
f 51/69/34 52/34/33 54/35/35 53/71/36
f 53/71/36 54/36/35 56/37/37 55/76/38
f 55/76/38 56/38/37 58/39/26 57/73/25
f 1/40/39 21/42/1 23/41/4 12/64/40
f 21/42/1 1/40/39 2/43/41 25/45/5
f 3/44/42 28/46/9 25/45/5 2/43/41
f 28/46/9 3/44/42 4/47/43 29/10/11
f 6/54/44 7/48/45 34/57/17 31/49/15
f 29/50/11 4/51/43 5/52/46 35/53/13
f 35/53/13 5/52/46 6/54/44 31/49/15
f 8/58/47 9/55/48 39/59/21 37/56/19
f 34/57/17 7/48/45 8/58/47 37/56/19
f 39/59/21 9/55/48 20/60/49 42/78/23
f 13/61/50 43/66/27 45/62/30 14/67/51
f 47/63/8 11/65/52 12/64/40 23/41/4
f 11/65/52 47/63/8 43/66/27 13/61/50
f 14/67/51 45/62/30 49/68/32 15/70/53
f 49/68/32 51/69/34 16/72/54 15/70/53
f 51/69/34 53/71/36 17/75/55 16/72/54
f 57/73/25 19/77/56 18/74/57 55/76/38
f 17/75/55 53/71/36 55/76/38 18/74/57
f 19/77/56 57/73/25 42/78/23 20/60/49
f 24/79/3 22/80/2 48/84/7
f 41/81/24 58/82/26 40/83/22
f 38/87/20 40/83/22 58/82/26 56/88/37
f 48/84/7 22/80/2 26/85/6 44/94/28
f 33/86/18 38/87/20 56/88/37 32/91/16
f 44/94/28 26/85/6 27/89/10 30/90/12
f 36/95/14 32/91/16 56/88/37 54/92/35
f 54/92/35 52/93/33 36/95/14
f 44/94/28 30/90/12 36/95/14 46/97/29
f 36/95/14 52/93/33 50/96/31 46/97/29
f 59/98/58 60/99/59 68/100/60 67/101/61
f 60/99/59 59/98/58 61/102/62 62/103/63
f 62/103/63 61/102/62 63/104/64 64/105/65
f 64/105/65 63/104/64 65/106/66 66/107/67
f 66/107/67 65/106/66 80/108/68 79/109/69
f 67/101/61 68/100/60 78/110/70 77/111/71
f 69/112/72 70/113/73 72/114/74 71/115/75
f 70/113/73 69/112/72 73/116/76 74/117/77
f 71/115/75 72/114/74 92/118/78 91/119/79
f 74/117/77 73/116/76 75/120/80 76/121/81
f 76/121/81 75/120/80 77/111/71 78/110/70
f 79/109/69 80/108/68 87/122/82 88/123/83
f 81/124/84 82/125/85 84/126/86 83/127/87
f 82/125/85 81/124/84 95/128/88 96/129/89
f 83/127/87 84/126/86 90/130/90 89/131/91
f 85/132/92 86/133/93 88/123/83 87/122/82
f 86/133/93 85/132/92 89/131/91 90/130/90
f 91/119/79 92/118/78 94/134/94 93/135/95
f 93/135/95 94/134/94 96/129/89 95/128/88
f 4/136/43 3/137/42 61/102/62 59/98/58
f 3/137/42 2/138/41 63/104/64 61/102/62
f 9/139/48 8/140/47 73/116/76 69/112/72
f 1/141/39 12/142/40 80/108/68 65/106/66
f 7/143/45 6/144/44 77/111/71 75/120/80
f 5/145/46 4/136/43 59/98/58 67/101/61
f 8/140/47 7/143/45 75/120/80 73/116/76
f 20/146/49 9/139/48 69/112/72 71/115/75
f 2/138/41 1/141/39 65/106/66 63/104/64
f 6/144/44 5/145/46 67/101/61 77/111/71
f 62/103/63 64/105/65 10/147/96
f 10/147/96 60/99/59 62/103/63
f 72/114/74 70/113/73 10/147/96
f 10/147/96 66/107/67 79/109/69
f 70/113/73 74/117/77 10/147/96
f 76/121/81 78/110/70 10/147/96
f 68/100/60 60/99/59 10/147/96
f 10/147/96 74/117/77 76/121/81
f 78/110/70 68/100/60 10/147/96
f 64/105/65 66/107/67 10/147/96
f 14/148/51 15/149/53 83/127/87 89/131/91
f 13/150/50 14/148/51 89/131/91 85/132/92
f 18/151/57 19/152/56 91/119/79 93/135/95
f 80/108/68 12/142/40 11/153/52 87/122/82
f 17/154/55 18/151/57 93/135/95 95/128/88
f 81/124/84 83/127/87 15/149/53 16/155/54
f 19/152/56 20/146/49 71/115/75 91/119/79
f 11/153/52 13/150/50 85/132/92 87/122/82
f 81/124/84 16/155/54 17/154/55 95/128/88
f 90/130/90 84/126/86 10/147/96
f 10/147/96 86/133/93 90/130/90
f 10/147/96 92/118/78 72/114/74
f 79/109/69 88/123/83 10/147/96
f 94/134/94 92/118/78 10/147/96
f 10/147/96 84/126/86 82/125/85
f 96/129/89 10/147/96 82/125/85
f 96/129/89 94/134/94 10/147/96
f 10/147/96 88/123/83 86/133/93
